<svg width="69" height="22" viewBox="0 0 69 22" fill="none" xmlns="http://www.w3.org/2000/svg">
<path d="M12.0078 8.0625V10.3945H2.94922V8.0625H12.0078ZM3.67578 0.9375V18H0.734375V0.9375H3.67578ZM14.2695 0.9375V18H11.3398V0.9375H14.2695ZM24.6406 15.457V9.41016C24.6406 8.95703 24.5586 8.56641 24.3945 8.23828C24.2305 7.91016 23.9805 7.65625 23.6445 7.47656C23.3164 7.29688 22.9023 7.20703 22.4023 7.20703C21.9414 7.20703 21.543 7.28516 21.207 7.44141C20.8711 7.59766 20.6094 7.80859 20.4219 8.07422C20.2344 8.33984 20.1406 8.64062 20.1406 8.97656H17.3281C17.3281 8.47656 17.4492 7.99219 17.6914 7.52344C17.9336 7.05469 18.2852 6.63672 18.7461 6.26953C19.207 5.90234 19.7578 5.61328 20.3984 5.40234C21.0391 5.19141 21.7578 5.08594 22.5547 5.08594C23.5078 5.08594 24.3516 5.24609 25.0859 5.56641C25.8281 5.88672 26.4102 6.37109 26.832 7.01953C27.2617 7.66016 27.4766 8.46484 27.4766 9.43359V15.0703C27.4766 15.6484 27.5156 16.168 27.5938 16.6289C27.6797 17.082 27.8008 17.4766 27.957 17.8125V18H25.0625C24.9297 17.6953 24.8242 17.3086 24.7461 16.8398C24.6758 16.3633 24.6406 15.9023 24.6406 15.457ZM25.0508 10.2891L25.0742 12.0352H23.0469C22.5234 12.0352 22.0625 12.0859 21.6641 12.1875C21.2656 12.2812 20.9336 12.4219 20.668 12.6094C20.4023 12.7969 20.2031 13.0234 20.0703 13.2891C19.9375 13.5547 19.8711 13.8555 19.8711 14.1914C19.8711 14.5273 19.9492 14.8359 20.1055 15.1172C20.2617 15.3906 20.4883 15.6055 20.7852 15.7617C21.0898 15.918 21.457 15.9961 21.8867 15.9961C22.4648 15.9961 22.9688 15.8789 23.3984 15.6445C23.8359 15.4023 24.1797 15.1094 24.4297 14.7656C24.6797 14.4141 24.8125 14.082 24.8281 13.7695L25.7422 15.0234C25.6484 15.3438 25.4883 15.6875 25.2617 16.0547C25.0352 16.4219 24.7383 16.7734 24.3711 17.1094C24.0117 17.4375 23.5781 17.707 23.0703 17.918C22.5703 18.1289 21.9922 18.2344 21.3359 18.2344C20.5078 18.2344 19.7695 18.0703 19.1211 17.7422C18.4727 17.4062 17.9648 16.957 17.5977 16.3945C17.2305 15.8242 17.0469 15.1797 17.0469 14.4609C17.0469 13.7891 17.1719 13.1953 17.4219 12.6797C17.6797 12.1562 18.0547 11.7188 18.5469 11.3672C19.0469 11.0156 19.6562 10.75 20.375 10.5703C21.0938 10.3828 21.9141 10.2891 22.8359 10.2891H25.0508ZM35.6797 11.9414H33.2422V10.5117H35.2109C35.7109 10.5117 36.1094 10.4453 36.4062 10.3125C36.7109 10.1797 36.9258 9.99609 37.0508 9.76172C37.1836 9.51953 37.25 9.23828 37.25 8.91797C37.25 8.63672 37.1836 8.37109 37.0508 8.12109C36.9258 7.86328 36.7109 7.65234 36.4062 7.48828C36.1016 7.32422 35.6875 7.24219 35.1641 7.24219C34.7344 7.24219 34.3477 7.3125 34.0039 7.45312C33.668 7.59375 33.4023 7.78906 33.207 8.03906C33.0117 8.28906 32.9141 8.57812 32.9141 8.90625H30.0898C30.0898 8.11719 30.3125 7.4375 30.7578 6.86719C31.2109 6.29688 31.8164 5.85938 32.5742 5.55469C33.332 5.25 34.1641 5.09766 35.0703 5.09766C35.8438 5.09766 36.5391 5.17969 37.1562 5.34375C37.7734 5.5 38.2969 5.73438 38.7266 6.04688C39.1641 6.35156 39.4961 6.73438 39.7227 7.19531C39.957 7.64844 40.0742 8.17578 40.0742 8.77734C40.0742 9.20703 39.9727 9.61328 39.7695 9.99609C39.5664 10.3789 39.2734 10.7188 38.8906 11.0156C38.5078 11.3047 38.043 11.5312 37.4961 11.6953C36.957 11.8594 36.3516 11.9414 35.6797 11.9414ZM33.2422 11.1211H35.6797C36.4297 11.1211 37.0938 11.1953 37.6719 11.3438C38.25 11.4844 38.7344 11.6953 39.125 11.9766C39.5156 12.2578 39.8086 12.6055 40.0039 13.0195C40.207 13.4258 40.3086 13.8945 40.3086 14.4258C40.3086 15.0195 40.1797 15.5547 39.9219 16.0312C39.6719 16.5 39.3125 16.8984 38.8438 17.2266C38.3828 17.5547 37.832 17.8047 37.1914 17.9766C36.5508 18.1484 35.8438 18.2344 35.0703 18.2344C34.2266 18.2344 33.4062 18.0938 32.6094 17.8125C31.8203 17.5312 31.168 17.0977 30.6523 16.5117C30.1445 15.918 29.8906 15.1641 29.8906 14.25H32.7148C32.7148 14.5703 32.8125 14.8711 33.0078 15.1523C33.2031 15.4336 33.4844 15.6641 33.8516 15.8438C34.2188 16.0156 34.6602 16.1016 35.1758 16.1016C35.707 16.1016 36.1406 16.0195 36.4766 15.8555C36.8125 15.6836 37.0625 15.4609 37.2266 15.1875C37.3906 14.9062 37.4727 14.6094 37.4727 14.2969C37.4727 13.875 37.3906 13.5352 37.2266 13.2773C37.0625 13.0195 36.8125 12.832 36.4766 12.7148C36.1406 12.5898 35.7188 12.5273 35.2109 12.5273H33.2422V11.1211ZM49.8594 15.457V9.41016C49.8594 8.95703 49.7773 8.56641 49.6133 8.23828C49.4492 7.91016 49.1992 7.65625 48.8633 7.47656C48.5352 7.29688 48.1211 7.20703 47.6211 7.20703C47.1602 7.20703 46.7617 7.28516 46.4258 7.44141C46.0898 7.59766 45.8281 7.80859 45.6406 8.07422C45.4531 8.33984 45.3594 8.64062 45.3594 8.97656H42.5469C42.5469 8.47656 42.668 7.99219 42.9102 7.52344C43.1523 7.05469 43.5039 6.63672 43.9648 6.26953C44.4258 5.90234 44.9766 5.61328 45.6172 5.40234C46.2578 5.19141 46.9766 5.08594 47.7734 5.08594C48.7266 5.08594 49.5703 5.24609 50.3047 5.56641C51.0469 5.88672 51.6289 6.37109 52.0508 7.01953C52.4805 7.66016 52.6953 8.46484 52.6953 9.43359V15.0703C52.6953 15.6484 52.7344 16.168 52.8125 16.6289C52.8984 17.082 53.0195 17.4766 53.1758 17.8125V18H50.2812C50.1484 17.6953 50.043 17.3086 49.9648 16.8398C49.8945 16.3633 49.8594 15.9023 49.8594 15.457ZM50.2695 10.2891L50.293 12.0352H48.2656C47.7422 12.0352 47.2812 12.0859 46.8828 12.1875C46.4844 12.2812 46.1523 12.4219 45.8867 12.6094C45.6211 12.7969 45.4219 13.0234 45.2891 13.2891C45.1562 13.5547 45.0898 13.8555 45.0898 14.1914C45.0898 14.5273 45.168 14.8359 45.3242 15.1172C45.4805 15.3906 45.707 15.6055 46.0039 15.7617C46.3086 15.918 46.6758 15.9961 47.1055 15.9961C47.6836 15.9961 48.1875 15.8789 48.6172 15.6445C49.0547 15.4023 49.3984 15.1094 49.6484 14.7656C49.8984 14.4141 50.0312 14.082 50.0469 13.7695L50.9609 15.0234C50.8672 15.3438 50.707 15.6875 50.4805 16.0547C50.2539 16.4219 49.957 16.7734 49.5898 17.1094C49.2305 17.4375 48.7969 17.707 48.2891 17.918C47.7891 18.1289 47.2109 18.2344 46.5547 18.2344C45.7266 18.2344 44.9883 18.0703 44.3398 17.7422C43.6914 17.4062 43.1836 16.957 42.8164 16.3945C42.4492 15.8242 42.2656 15.1797 42.2656 14.4609C42.2656 13.7891 42.3906 13.1953 42.6406 12.6797C42.8984 12.1562 43.2734 11.7188 43.7656 11.3672C44.2656 11.0156 44.875 10.75 45.5938 10.5703C46.3125 10.3828 47.1328 10.2891 48.0547 10.2891H50.2695ZM57.9453 5.32031H60.7695L60.6289 9.78516C60.5898 11.082 60.4414 12.1953 60.1836 13.125C59.9258 14.0547 59.5898 14.8398 59.1758 15.4805C58.7617 16.1133 58.293 16.6328 57.7695 17.0391C57.2539 17.4453 56.7109 17.7656 56.1406 18H55.3086V15.7734L55.707 15.75C56.043 15.3906 56.332 15.0312 56.5742 14.6719C56.8242 14.3047 57.0352 13.9023 57.207 13.4648C57.3789 13.0195 57.5117 12.5 57.6055 11.9062C57.707 11.3125 57.7734 10.6055 57.8047 9.78516L57.9453 5.32031ZM58.6953 5.32031H66.7344V18H63.9219V7.71094H58.6953V5.32031ZM54.6641 15.75H68.4688V21.7734H65.6445V18H57.5234V21.7734H54.6523L54.6641 15.75Z" fill="#474955"/>
</svg>
