<svg width="70" height="23" viewBox="0 0 70 23" fill="none" xmlns="http://www.w3.org/2000/svg">
<path d="M15.2109 15.668V18H2.63672V15.668H15.2109ZM3.36328 15.668V22.1953H0.550781L0.445312 15.668H3.36328ZM17.4844 15.668L17.3086 22.1836H14.543V15.668H17.4844ZM13.1484 0.9375V3.28125H5.27344V0.9375H13.1484ZM15.3984 0.9375V18H12.4688V0.9375H15.3984ZM4.6875 0.9375H7.62891L7.21875 7.85156C7.15625 8.94531 7.04297 9.92969 6.87891 10.8047C6.71484 11.6797 6.51562 12.4648 6.28125 13.1602C6.05469 13.8477 5.79688 14.457 5.50781 14.9883C5.21875 15.5117 4.91016 15.9648 4.58203 16.3477C4.25391 16.7305 3.91797 17.0586 3.57422 17.332C3.23828 17.5977 2.90625 17.8203 2.57812 18H1.00781V15.668H1.76953C1.98047 15.4727 2.21484 15.1914 2.47266 14.8242C2.73047 14.4492 2.98047 13.9609 3.22266 13.3594C3.47266 12.75 3.69141 11.9961 3.87891 11.0977C4.06641 10.1992 4.19531 9.11719 4.26562 7.85156L4.6875 0.9375ZM26.5781 15.457V9.41016C26.5781 8.95703 26.4961 8.56641 26.332 8.23828C26.168 7.91016 25.918 7.65625 25.582 7.47656C25.2539 7.29688 24.8398 7.20703 24.3398 7.20703C23.8789 7.20703 23.4805 7.28516 23.1445 7.44141C22.8086 7.59766 22.5469 7.80859 22.3594 8.07422C22.1719 8.33984 22.0781 8.64062 22.0781 8.97656H19.2656C19.2656 8.47656 19.3867 7.99219 19.6289 7.52344C19.8711 7.05469 20.2227 6.63672 20.6836 6.26953C21.1445 5.90234 21.6953 5.61328 22.3359 5.40234C22.9766 5.19141 23.6953 5.08594 24.4922 5.08594C25.4453 5.08594 26.2891 5.24609 27.0234 5.56641C27.7656 5.88672 28.3477 6.37109 28.7695 7.01953C29.1992 7.66016 29.4141 8.46484 29.4141 9.43359V15.0703C29.4141 15.6484 29.4531 16.168 29.5312 16.6289C29.6172 17.082 29.7383 17.4766 29.8945 17.8125V18H27C26.8672 17.6953 26.7617 17.3086 26.6836 16.8398C26.6133 16.3633 26.5781 15.9023 26.5781 15.457ZM26.9883 10.2891L27.0117 12.0352H24.9844C24.4609 12.0352 24 12.0859 23.6016 12.1875C23.2031 12.2812 22.8711 12.4219 22.6055 12.6094C22.3398 12.7969 22.1406 13.0234 22.0078 13.2891C21.875 13.5547 21.8086 13.8555 21.8086 14.1914C21.8086 14.5273 21.8867 14.8359 22.043 15.1172C22.1992 15.3906 22.4258 15.6055 22.7227 15.7617C23.0273 15.918 23.3945 15.9961 23.8242 15.9961C24.4023 15.9961 24.9062 15.8789 25.3359 15.6445C25.7734 15.4023 26.1172 15.1094 26.3672 14.7656C26.6172 14.4141 26.75 14.082 26.7656 13.7695L27.6797 15.0234C27.5859 15.3438 27.4258 15.6875 27.1992 16.0547C26.9727 16.4219 26.6758 16.7734 26.3086 17.1094C25.9492 17.4375 25.5156 17.707 25.0078 17.918C24.5078 18.1289 23.9297 18.2344 23.2734 18.2344C22.4453 18.2344 21.707 18.0703 21.0586 17.7422C20.4102 17.4062 19.9023 16.957 19.5352 16.3945C19.168 15.8242 18.9844 15.1797 18.9844 14.4609C18.9844 13.7891 19.1094 13.1953 19.3594 12.6797C19.6172 12.1562 19.9922 11.7188 20.4844 11.3672C20.9844 11.0156 21.5938 10.75 22.3125 10.5703C23.0312 10.3828 23.8516 10.2891 24.7734 10.2891H26.9883ZM40.8867 5.32031V7.57031H34.6992V5.32031H40.8867ZM43.1016 5.32031V18H40.2773V5.32031H43.1016ZM34.0078 5.32031H36.7969L36.457 11.5898C36.4102 12.5195 36.3164 13.3398 36.1758 14.0508C36.043 14.7539 35.8633 15.3594 35.6367 15.8672C35.4102 16.3672 35.1328 16.7734 34.8047 17.0859C34.4766 17.3984 34.0938 17.6289 33.6562 17.7773C33.2188 17.9258 32.7266 18 32.1797 18H31.3008L31.2891 15.6797L31.7344 15.6445C32.0234 15.6211 32.2734 15.5469 32.4844 15.4219C32.6953 15.2891 32.875 15.1016 33.0234 14.8594C33.1797 14.6172 33.3047 14.3047 33.3984 13.9219C33.5 13.5391 33.5781 13.0859 33.6328 12.5625C33.6953 12.0391 33.7422 11.4297 33.7734 10.7344L34.0078 5.32031ZM51.6914 18.2344C50.7539 18.2344 49.9062 18.082 49.1484 17.7773C48.3984 17.4648 47.7578 17.0312 47.2266 16.4766C46.7031 15.9219 46.3008 15.2695 46.0195 14.5195C45.7383 13.7695 45.5977 12.9609 45.5977 12.0938V11.625C45.5977 10.6328 45.7422 9.73438 46.0312 8.92969C46.3203 8.125 46.7227 7.4375 47.2383 6.86719C47.7539 6.28906 48.3633 5.84766 49.0664 5.54297C49.7695 5.23828 50.5312 5.08594 51.3516 5.08594C52.2578 5.08594 53.0508 5.23828 53.7305 5.54297C54.4102 5.84766 54.9727 6.27734 55.418 6.83203C55.8711 7.37891 56.207 8.03125 56.4258 8.78906C56.6523 9.54688 56.7656 10.3828 56.7656 11.2969V12.5039H46.9688V10.4766H53.9766V10.2539C53.9609 9.74609 53.8594 9.26953 53.6719 8.82422C53.4922 8.37891 53.2148 8.01953 52.8398 7.74609C52.4648 7.47266 51.9648 7.33594 51.3398 7.33594C50.8711 7.33594 50.4531 7.4375 50.0859 7.64062C49.7266 7.83594 49.4258 8.12109 49.1836 8.49609C48.9414 8.87109 48.7539 9.32422 48.6211 9.85547C48.4961 10.3789 48.4336 10.9688 48.4336 11.625V12.0938C48.4336 12.6484 48.5078 13.1641 48.6562 13.6406C48.8125 14.1094 49.0391 14.5195 49.3359 14.8711C49.6328 15.2227 49.9922 15.5 50.4141 15.7031C50.8359 15.8984 51.3164 15.9961 51.8555 15.9961C52.5352 15.9961 53.1406 15.8594 53.6719 15.5859C54.2031 15.3125 54.6641 14.9258 55.0547 14.4258L56.543 15.8672C56.2695 16.2656 55.9141 16.6484 55.4766 17.0156C55.0391 17.375 54.5039 17.668 53.8711 17.8945C53.2461 18.1211 52.5195 18.2344 51.6914 18.2344ZM64.5586 18.2344C63.6211 18.2344 62.7734 18.082 62.0156 17.7773C61.2656 17.4648 60.625 17.0312 60.0938 16.4766C59.5703 15.9219 59.168 15.2695 58.8867 14.5195C58.6055 13.7695 58.4648 12.9609 58.4648 12.0938V11.625C58.4648 10.6328 58.6094 9.73438 58.8984 8.92969C59.1875 8.125 59.5898 7.4375 60.1055 6.86719C60.6211 6.28906 61.2305 5.84766 61.9336 5.54297C62.6367 5.23828 63.3984 5.08594 64.2188 5.08594C65.125 5.08594 65.918 5.23828 66.5977 5.54297C67.2773 5.84766 67.8398 6.27734 68.2852 6.83203C68.7383 7.37891 69.0742 8.03125 69.293 8.78906C69.5195 9.54688 69.6328 10.3828 69.6328 11.2969V12.5039H59.8359V10.4766H66.8438V10.2539C66.8281 9.74609 66.7266 9.26953 66.5391 8.82422C66.3594 8.37891 66.082 8.01953 65.707 7.74609C65.332 7.47266 64.832 7.33594 64.207 7.33594C63.7383 7.33594 63.3203 7.4375 62.9531 7.64062C62.5938 7.83594 62.293 8.12109 62.0508 8.49609C61.8086 8.87109 61.6211 9.32422 61.4883 9.85547C61.3633 10.3789 61.3008 10.9688 61.3008 11.625V12.0938C61.3008 12.6484 61.375 13.1641 61.5234 13.6406C61.6797 14.1094 61.9062 14.5195 62.2031 14.8711C62.5 15.2227 62.8594 15.5 63.2812 15.7031C63.7031 15.8984 64.1836 15.9961 64.7227 15.9961C65.4023 15.9961 66.0078 15.8594 66.5391 15.5859C67.0703 15.3125 67.5312 14.9258 67.9219 14.4258L69.4102 15.8672C69.1367 16.2656 68.7812 16.6484 68.3438 17.0156C67.9062 17.375 67.3711 17.668 66.7383 17.8945C66.1133 18.1211 65.3867 18.2344 64.5586 18.2344Z" fill="#474955"/>
</svg>
